<mxfile host="app.diagrams.net" modified="2020-05-18T12:57:28.865Z" agent="5.0 (Macintosh; Intel Mac OS X 10_15_3) AppleWebKit/605.1.15 (KHTML, like Gecko) Version/13.0.5 Safari/605.1.15" etag="XwoiL3e673CtlEm-0FA1" version="12.9.12" type="github">
  <diagram id="3ChKobuoZKqZvx7yNvab" name="Page-1">
    <mxGraphModel dx="1240" dy="768" grid="1" gridSize="10" guides="1" tooltips="1" connect="1" arrows="1" fold="1" page="1" pageScale="1" pageWidth="827" pageHeight="1169" math="0" shadow="0">
      <root>
        <mxCell id="0" />
        <mxCell id="1" parent="0" />
        <mxCell id="a0jC55dXt6eBEB4kqR6y-13" style="edgeStyle=orthogonalEdgeStyle;rounded=0;orthogonalLoop=1;jettySize=auto;html=1;exitX=0.5;exitY=1;exitDx=0;exitDy=0;entryX=0.5;entryY=0;entryDx=0;entryDy=0;" edge="1" parent="1" source="YTcx9iLwEz3lk8RtwIIG-1" target="a0jC55dXt6eBEB4kqR6y-1">
          <mxGeometry relative="1" as="geometry" />
        </mxCell>
        <mxCell id="YTcx9iLwEz3lk8RtwIIG-1" value="前台首页php" style="rounded=1;whiteSpace=wrap;html=1;" parent="1" vertex="1">
          <mxGeometry x="610" y="50" width="120" height="40" as="geometry" />
        </mxCell>
        <mxCell id="a0jC55dXt6eBEB4kqR6y-1" value="数据层API" style="rounded=1;whiteSpace=wrap;html=1;" vertex="1" parent="1">
          <mxGeometry x="610" y="140" width="120" height="40" as="geometry" />
        </mxCell>
        <mxCell id="a0jC55dXt6eBEB4kqR6y-16" style="edgeStyle=orthogonalEdgeStyle;rounded=0;orthogonalLoop=1;jettySize=auto;html=1;exitX=0;exitY=0.5;exitDx=0;exitDy=0;entryX=1;entryY=0.75;entryDx=0;entryDy=0;" edge="1" parent="1" source="a0jC55dXt6eBEB4kqR6y-2" target="a0jC55dXt6eBEB4kqR6y-3">
          <mxGeometry relative="1" as="geometry" />
        </mxCell>
        <mxCell id="a0jC55dXt6eBEB4kqR6y-2" value="拨测DB(HBASE)" style="shape=cylinder;whiteSpace=wrap;html=1;boundedLbl=1;backgroundOutline=1;" vertex="1" parent="1">
          <mxGeometry x="610" y="220" width="120" height="60" as="geometry" />
        </mxCell>
        <mxCell id="a0jC55dXt6eBEB4kqR6y-3" value="告警分析python" style="rounded=1;whiteSpace=wrap;html=1;" vertex="1" parent="1">
          <mxGeometry x="460" y="220" width="120" height="40" as="geometry" />
        </mxCell>
        <mxCell id="a0jC55dXt6eBEB4kqR6y-4" value="拨测SVR" style="rounded=1;whiteSpace=wrap;html=1;" vertex="1" parent="1">
          <mxGeometry x="610" y="320" width="120" height="40" as="geometry" />
        </mxCell>
        <mxCell id="a0jC55dXt6eBEB4kqR6y-5" value="拨测Agent" style="rounded=1;whiteSpace=wrap;html=1;" vertex="1" parent="1">
          <mxGeometry x="610" y="380" width="120" height="40" as="geometry" />
        </mxCell>
        <mxCell id="a0jC55dXt6eBEB4kqR6y-8" value="10.248.112.126&lt;br&gt;10.248.113.142&lt;br&gt;10.248.114.130&lt;br&gt;10.244.105.229（待）天津电信" style="rounded=1;whiteSpace=wrap;html=1;" vertex="1" parent="1">
          <mxGeometry x="360" y="520" width="120" height="90" as="geometry" />
        </mxCell>
        <mxCell id="a0jC55dXt6eBEB4kqR6y-9" value="10.248.112.128&lt;br&gt;天津联通" style="rounded=1;whiteSpace=wrap;html=1;" vertex="1" parent="1">
          <mxGeometry x="240" y="620" width="110" height="90" as="geometry" />
        </mxCell>
        <mxCell id="a0jC55dXt6eBEB4kqR6y-10" value="10.248.112.13&lt;br&gt;10.248.112.121&lt;br&gt;9.6.167.42（待）&lt;br&gt;天津移动" style="rounded=1;whiteSpace=wrap;html=1;" vertex="1" parent="1">
          <mxGeometry x="240" y="520" width="110" height="90" as="geometry" />
        </mxCell>
        <mxCell id="a0jC55dXt6eBEB4kqR6y-11" value="&lt;div&gt;10.242.6.79&lt;/div&gt;&lt;div&gt;10.58.90.115&lt;/div&gt;&lt;div&gt;10.236.3.104&lt;/div&gt;&lt;div&gt;10.236.3.82&lt;/div&gt;&lt;div&gt;上海移动&lt;/div&gt;" style="rounded=1;whiteSpace=wrap;html=1;" vertex="1" parent="1">
          <mxGeometry x="520" y="520" width="110" height="90" as="geometry" />
        </mxCell>
        <mxCell id="a0jC55dXt6eBEB4kqR6y-12" value="&lt;div&gt;10.246.138.205&lt;/div&gt;&lt;div&gt;10.246.138.210&lt;/div&gt;&lt;div&gt;10.246.138.207&lt;/div&gt;&lt;div&gt;10.246.138.208&lt;/div&gt;&lt;div&gt;上海电信&lt;/div&gt;" style="rounded=1;whiteSpace=wrap;html=1;" vertex="1" parent="1">
          <mxGeometry x="640" y="520" width="110" height="90" as="geometry" />
        </mxCell>
        <mxCell id="a0jC55dXt6eBEB4kqR6y-14" value="" style="endArrow=classic;startArrow=classic;html=1;entryX=0.5;entryY=1;entryDx=0;entryDy=0;exitX=0.5;exitY=0;exitDx=0;exitDy=0;" edge="1" parent="1" source="a0jC55dXt6eBEB4kqR6y-2" target="a0jC55dXt6eBEB4kqR6y-1">
          <mxGeometry width="50" height="50" relative="1" as="geometry">
            <mxPoint x="700" y="440" as="sourcePoint" />
            <mxPoint x="750" y="390" as="targetPoint" />
          </mxGeometry>
        </mxCell>
        <mxCell id="a0jC55dXt6eBEB4kqR6y-15" value="" style="endArrow=classic;startArrow=classic;html=1;entryX=0.5;entryY=1;entryDx=0;entryDy=0;exitX=0.5;exitY=0;exitDx=0;exitDy=0;" edge="1" parent="1" source="a0jC55dXt6eBEB4kqR6y-4" target="a0jC55dXt6eBEB4kqR6y-2">
          <mxGeometry width="50" height="50" relative="1" as="geometry">
            <mxPoint x="700" y="440" as="sourcePoint" />
            <mxPoint x="750" y="390" as="targetPoint" />
          </mxGeometry>
        </mxCell>
        <mxCell id="a0jC55dXt6eBEB4kqR6y-17" value="" style="endArrow=classic;startArrow=classic;html=1;entryX=0.5;entryY=1;entryDx=0;entryDy=0;exitX=0.5;exitY=0;exitDx=0;exitDy=0;" edge="1" parent="1" source="a0jC55dXt6eBEB4kqR6y-5" target="a0jC55dXt6eBEB4kqR6y-4">
          <mxGeometry width="50" height="50" relative="1" as="geometry">
            <mxPoint x="700" y="440" as="sourcePoint" />
            <mxPoint x="750" y="390" as="targetPoint" />
          </mxGeometry>
        </mxCell>
        <mxCell id="a0jC55dXt6eBEB4kqR6y-18" value="&lt;div&gt;9.114.5.18&lt;/div&gt;&lt;div&gt;9.114.4.190&lt;/div&gt;&lt;div&gt;10.236.3.238&lt;/div&gt;&lt;div&gt;上海联通&lt;/div&gt;" style="rounded=1;whiteSpace=wrap;html=1;" vertex="1" parent="1">
          <mxGeometry x="580" y="620" width="110" height="90" as="geometry" />
        </mxCell>
        <mxCell id="a0jC55dXt6eBEB4kqR6y-19" value="&lt;div&gt;9.89.28.218（电）&lt;/div&gt;&lt;div&gt;9.89.28.227（联）&lt;/div&gt;&lt;div&gt;9.89.29.175（腾）&lt;/div&gt;&lt;div&gt;9.89.29.225（移）&lt;/div&gt;&lt;div&gt;上海一区&lt;/div&gt;" style="rounded=1;whiteSpace=wrap;html=1;" vertex="1" parent="1">
          <mxGeometry x="790" y="520" width="110" height="90" as="geometry" />
        </mxCell>
        <mxCell id="a0jC55dXt6eBEB4kqR6y-20" value="&lt;div&gt;9.142.168.125&lt;/div&gt;&lt;div&gt;9.142.168.137&lt;/div&gt;&lt;div&gt;9.142.168.63&lt;/div&gt;&lt;div&gt;9.142.168.96&lt;/div&gt;&lt;div&gt;上海二区（腾）&lt;/div&gt;" style="rounded=1;whiteSpace=wrap;html=1;" vertex="1" parent="1">
          <mxGeometry x="910" y="520" width="110" height="90" as="geometry" />
        </mxCell>
        <mxCell id="a0jC55dXt6eBEB4kqR6y-21" value="4核8G" style="text;html=1;strokeColor=none;fillColor=none;align=center;verticalAlign=middle;whiteSpace=wrap;rounded=0;" vertex="1" parent="1">
          <mxGeometry x="890" y="500" width="40" height="20" as="geometry" />
        </mxCell>
        <mxCell id="a0jC55dXt6eBEB4kqR6y-22" value="&lt;div&gt;9.77.245.28（移）&lt;/div&gt;&lt;div&gt;9.77.246.39（腾）&lt;/div&gt;&lt;div&gt;9.83.136.45（电）&lt;/div&gt;&lt;div&gt;9.83.139.46（联）&lt;/div&gt;&lt;div&gt;上海三区&lt;/div&gt;" style="rounded=1;whiteSpace=wrap;html=1;" vertex="1" parent="1">
          <mxGeometry x="790" y="620" width="110" height="90" as="geometry" />
        </mxCell>
        <mxCell id="a0jC55dXt6eBEB4kqR6y-23" value="主负:sensen" style="text;html=1;strokeColor=none;fillColor=none;align=center;verticalAlign=middle;whiteSpace=wrap;rounded=0;" vertex="1" parent="1">
          <mxGeometry x="800" y="500" width="100" height="20" as="geometry" />
        </mxCell>
        <mxCell id="a0jC55dXt6eBEB4kqR6y-25" value="&lt;div&gt;9.88.184.184（电）&lt;/div&gt;&lt;div&gt;9.88.184.199（腾）&lt;/div&gt;&lt;div&gt;9.88.184.77（联）&lt;/div&gt;&lt;div&gt;9.88.185.213（移）&lt;/div&gt;&lt;div&gt;上海四区&lt;/div&gt;" style="rounded=1;whiteSpace=wrap;html=1;" vertex="1" parent="1">
          <mxGeometry x="910" y="620" width="110" height="90" as="geometry" />
        </mxCell>
        <mxCell id="a0jC55dXt6eBEB4kqR6y-26" value="" style="endArrow=none;dashed=1;html=1;" edge="1" parent="1">
          <mxGeometry width="50" height="50" relative="1" as="geometry">
            <mxPoint x="1050" y="500" as="sourcePoint" />
            <mxPoint x="1050" y="500" as="targetPoint" />
            <Array as="points">
              <mxPoint x="780" y="500" />
              <mxPoint x="780" y="730" />
              <mxPoint x="1050" y="730" />
            </Array>
          </mxGeometry>
        </mxCell>
        <mxCell id="a0jC55dXt6eBEB4kqR6y-27" value="" style="endArrow=none;dashed=1;html=1;" edge="1" parent="1">
          <mxGeometry width="50" height="50" relative="1" as="geometry">
            <mxPoint x="770" y="500" as="sourcePoint" />
            <mxPoint x="770" y="500" as="targetPoint" />
            <Array as="points">
              <mxPoint x="500" y="500" />
              <mxPoint x="500" y="730" />
              <mxPoint x="770" y="730" />
            </Array>
          </mxGeometry>
        </mxCell>
        <mxCell id="a0jC55dXt6eBEB4kqR6y-28" value="" style="endArrow=none;dashed=1;html=1;" edge="1" parent="1">
          <mxGeometry width="50" height="50" relative="1" as="geometry">
            <mxPoint x="490" y="500" as="sourcePoint" />
            <mxPoint x="490" y="500" as="targetPoint" />
            <Array as="points">
              <mxPoint x="220" y="500" />
              <mxPoint x="220" y="730" />
              <mxPoint x="490" y="730" />
            </Array>
          </mxGeometry>
        </mxCell>
        <mxCell id="a0jC55dXt6eBEB4kqR6y-29" value="12台" style="text;html=1;strokeColor=none;fillColor=none;align=center;verticalAlign=middle;whiteSpace=wrap;rounded=0;" vertex="1" parent="1">
          <mxGeometry x="420" y="500" width="40" height="20" as="geometry" />
        </mxCell>
        <mxCell id="a0jC55dXt6eBEB4kqR6y-31" value="16台" style="text;html=1;strokeColor=none;fillColor=none;align=center;verticalAlign=middle;whiteSpace=wrap;rounded=0;" vertex="1" parent="1">
          <mxGeometry x="930" y="500" width="40" height="20" as="geometry" />
        </mxCell>
        <mxCell id="a0jC55dXt6eBEB4kqR6y-32" value="11台" style="text;html=1;strokeColor=none;fillColor=none;align=center;verticalAlign=middle;whiteSpace=wrap;rounded=0;" vertex="1" parent="1">
          <mxGeometry x="690" y="500" width="40" height="20" as="geometry" />
        </mxCell>
        <mxCell id="a0jC55dXt6eBEB4kqR6y-34" value="&lt;div&gt;&lt;br&gt;&lt;/div&gt;&lt;div&gt;10.59.187.49（腾）&lt;/div&gt;&lt;div&gt;10.59.195.141（电）&lt;/div&gt;&lt;div&gt;10.59.195.184（联）&lt;/div&gt;&lt;div&gt;9.86.185.78（移）&lt;/div&gt;&lt;div&gt;广州三区&lt;/div&gt;&lt;div&gt;&lt;br&gt;&lt;/div&gt;" style="rounded=1;whiteSpace=wrap;html=1;align=center;" vertex="1" parent="1">
          <mxGeometry x="780" y="770" width="120" height="90" as="geometry" />
        </mxCell>
        <mxCell id="a0jC55dXt6eBEB4kqR6y-35" value="&lt;div&gt;&lt;div&gt;100.125.54.47（移）&lt;/div&gt;&lt;div&gt;100.125.55.21（电）&lt;/div&gt;&lt;div&gt;100.125.55.226（联）&lt;/div&gt;&lt;div&gt;100.125.55.44（腾）&lt;/div&gt;&lt;/div&gt;&lt;div&gt;广州四区&lt;/div&gt;" style="rounded=1;whiteSpace=wrap;html=1;" vertex="1" parent="1">
          <mxGeometry x="910" y="770" width="120" height="90" as="geometry" />
        </mxCell>
        <mxCell id="a0jC55dXt6eBEB4kqR6y-36" value="&lt;div&gt;&lt;div&gt;10.223.153.248（深圳联通）&lt;/div&gt;&lt;div&gt;10.223.153.245（深圳联通）&lt;/div&gt;&lt;div&gt;10.223.153.226（深圳联通）&lt;/div&gt;&lt;div&gt;10.223.153.232（深圳电信）&lt;/div&gt;&lt;div&gt;10.223.153.168（深圳移动）&lt;/div&gt;&lt;div&gt;10.223.153.186（深圳移动）&lt;/div&gt;&lt;div&gt;10.223.153.236（深圳电信）&lt;/div&gt;&lt;div&gt;10.223.153.182（深圳移动）&lt;/div&gt;&lt;div&gt;10.250.100.66（广州其他）&lt;/div&gt;&lt;div&gt;10.53.88.25（腾深）&lt;/div&gt;&lt;div&gt;10.53.88.26（腾深）&lt;/div&gt;&lt;/div&gt;&lt;div&gt;10.182.48.16（无信息，广州其他）&lt;/div&gt;&lt;div&gt;129.204.166.152（腾讯云广州）&lt;/div&gt;&lt;div&gt;172.16.0.16（广四腾）&lt;/div&gt;&lt;div&gt;172.16.0.3（广四腾）（损坏下线了）&lt;/div&gt;&lt;div&gt;127.16.0.8（广四腾）&lt;/div&gt;" style="rounded=1;whiteSpace=wrap;html=1;align=left;" vertex="1" parent="1">
          <mxGeometry x="820" y="880" width="220" height="300" as="geometry" />
        </mxCell>
        <mxCell id="a0jC55dXt6eBEB4kqR6y-37" value="" style="endArrow=none;dashed=1;html=1;" edge="1" parent="1">
          <mxGeometry width="50" height="50" relative="1" as="geometry">
            <mxPoint x="520" y="760" as="sourcePoint" />
            <mxPoint x="520" y="760" as="targetPoint" />
            <Array as="points">
              <mxPoint x="190" y="760" />
              <mxPoint x="190" y="480" />
              <mxPoint x="1080" y="480" />
              <mxPoint x="1080" y="1210" />
              <mxPoint x="780" y="1210" />
              <mxPoint x="780" y="890" />
              <mxPoint x="520" y="890" />
            </Array>
          </mxGeometry>
        </mxCell>
        <mxCell id="a0jC55dXt6eBEB4kqR6y-38" value="&lt;font style=&quot;font-size: 24px&quot;&gt;拨测Agent4个默认区域（天津，上海，广东，浙江）65台&lt;/font&gt;" style="text;html=1;strokeColor=none;fillColor=none;align=center;verticalAlign=middle;whiteSpace=wrap;rounded=0;" vertex="1" parent="1">
          <mxGeometry x="365" y="470" width="610" height="20" as="geometry" />
        </mxCell>
        <mxCell id="a0jC55dXt6eBEB4kqR6y-41" value="" style="endArrow=classic;html=1;exitX=0.5;exitY=1;exitDx=0;exitDy=0;entryX=0.5;entryY=0;entryDx=0;entryDy=0;" edge="1" parent="1" source="a0jC55dXt6eBEB4kqR6y-5" target="a0jC55dXt6eBEB4kqR6y-38">
          <mxGeometry width="50" height="50" relative="1" as="geometry">
            <mxPoint x="550" y="440" as="sourcePoint" />
            <mxPoint x="600" y="390" as="targetPoint" />
          </mxGeometry>
        </mxCell>
        <mxCell id="a0jC55dXt6eBEB4kqR6y-42" value="16台，2台无信息，3台腾云" style="text;html=1;strokeColor=none;fillColor=none;align=center;verticalAlign=middle;whiteSpace=wrap;rounded=0;" vertex="1" parent="1">
          <mxGeometry x="850" y="890" width="170" height="20" as="geometry" />
        </mxCell>
        <mxCell id="a0jC55dXt6eBEB4kqR6y-43" value="8台" style="text;html=1;strokeColor=none;fillColor=none;align=center;verticalAlign=middle;whiteSpace=wrap;rounded=0;" vertex="1" parent="1">
          <mxGeometry x="890" y="750" width="40" height="20" as="geometry" />
        </mxCell>
        <mxCell id="a0jC55dXt6eBEB4kqR6y-44" value="" style="endArrow=none;dashed=1;html=1;" edge="1" parent="1">
          <mxGeometry width="50" height="50" relative="1" as="geometry">
            <mxPoint x="1045" y="750" as="sourcePoint" />
            <mxPoint x="1045" y="750" as="targetPoint" />
            <Array as="points">
              <mxPoint x="775" y="750" />
              <mxPoint x="775" y="870" />
              <mxPoint x="1045" y="870" />
            </Array>
          </mxGeometry>
        </mxCell>
        <mxCell id="a0jC55dXt6eBEB4kqR6y-45" value="主负:sensen" style="text;html=1;strokeColor=none;fillColor=none;align=center;verticalAlign=middle;whiteSpace=wrap;rounded=0;" vertex="1" parent="1">
          <mxGeometry x="790" y="750" width="100" height="20" as="geometry" />
        </mxCell>
        <mxCell id="a0jC55dXt6eBEB4kqR6y-46" value="&lt;div&gt;9.145.160.22&lt;/div&gt;&lt;div&gt;9.145.160.25&lt;/div&gt;&lt;div&gt;9.145.160.42&lt;/div&gt;&lt;div&gt;9.145.160.49&lt;/div&gt;天津一区（sen腾）" style="rounded=1;whiteSpace=wrap;html=1;" vertex="1" parent="1">
          <mxGeometry x="360" y="620" width="110" height="90" as="geometry" />
        </mxCell>
        <mxCell id="a0jC55dXt6eBEB4kqR6y-47" value="&lt;div&gt;10.246.138.209&lt;/div&gt;&lt;div&gt;10.246.139.21&lt;/div&gt;&lt;div&gt;浙江电信&lt;/div&gt;" style="rounded=1;whiteSpace=wrap;html=1;" vertex="1" parent="1">
          <mxGeometry x="580" y="780" width="120" height="60" as="geometry" />
        </mxCell>
        <mxCell id="a0jC55dXt6eBEB4kqR6y-48" value="2台" style="text;html=1;strokeColor=none;fillColor=none;align=center;verticalAlign=middle;whiteSpace=wrap;rounded=0;" vertex="1" parent="1">
          <mxGeometry x="615" y="760" width="40" height="20" as="geometry" />
        </mxCell>
      </root>
    </mxGraphModel>
  </diagram>
</mxfile>
